<?xml version="1.0" encoding="utf-8"?>
<!-- Generator: Adobe Illustrator 16.0.3, SVG Export Plug-In . SVG Version: 6.00 Build 0)  -->
<!DOCTYPE svg PUBLIC "-//W3C//DTD SVG 1.1//EN" "http://www.w3.org/Graphics/SVG/1.1/DTD/svg11.dtd">
<svg version="1.1" id="Layer_1" xmlns="http://www.w3.org/2000/svg" xmlns:xlink="http://www.w3.org/1999/xlink" x="0px" y="0px"
	 width="600px" height="600px" viewBox="0 0 600 600" enable-background="new 0 0 600 600" xml:space="preserve">
<g>
	<rect fill-rule="evenodd" clip-rule="evenodd" fill="#F2F5F7" width="600" height="600"/>
	<path opacity="0.2" fill-rule="evenodd" clip-rule="evenodd" fill="#8A9193" d="M16.088,600
		c3.354-20.246,6.844-40.471,10.015-60.744c2.301-14.738,3.635-29.648,6.434-44.283c1.812-9.487,7.259-16.422,17.513-19.597
		c54.88-17.011,109.291-35.654,164.57-51.221c27.237-7.673,28.447-29.68,19.135-48.943c-11.649-24.098-24.495-47.774-34.018-72.704
		c-18.381-48.106-13.844-96.477,4.741-143.513c14.491-36.67,44.441-53.145,82.171-56.286c21.955-1.828,43.919-0.411,64.57,8.86
		c31.327,14.066,46.339,40.5,53.97,72.145c12.681,52.607,7.986,103.404-17.121,151.808c-7.164,13.81-14.833,27.367-21.551,41.388
		c-2.779,5.803-4.76,12.438-5.188,18.824c-0.934,13.897,4.867,21.573,18.311,25.821c55.104,17.412,110.153,35.02,165.443,51.829
		c13.173,4.007,21.644,10.573,23.69,24.492c4.996,34.047,10.085,68.081,15.137,102.124C394.636,600,205.362,600,16.088,600z"/>
</g>
</svg>
